<svg xmlns="http://www.w3.org/2000/svg" viewBox="0 0 100 100">
  <circle cx="50" cy="50" r="45" fill="#f5f5f5" stroke="#2c3e50" stroke-width="3"/>
  <!-- Gear -->
  <path d="M50 25 L55 25 L57 35 C60 36 63 37 65 39 L75 35 L78 39 L70 47 C71 49 71 52 70 55 L78 61 L75 65 L65 61 C63 63 60 64 57 65 L55 75 L45 75 L43 65 C40 64 37 63 35 61 L25 65 L22 61 L30 55 C29 52 29 49 30 47 L22 39 L25 35 L35 39 C37 37 40 36 43 35 L45 25 Z" fill="#e74c3c" stroke="#2c3e50" stroke-width="2"/>
  <!-- Inner circle -->
  <circle cx="50" cy="50" r="10" fill="#fff" stroke="#2c3e50" stroke-width="2"/>
</svg>